HIERARCHY
ROOT Hips
{
	OFFSET 0.00000 0.00000 0.00000
	CHANNELS 6 Xposition Yposition Zposition Zrotation Yrotation Xrotation 
	JOINT LHipJoint
	{
		OFFSET 0 0 0
		CHANNELS 3 Zrotation Yrotation Xrotation
		JOINT LeftHip
		{
			OFFSET 1.36306 -1.79463 0.83929
			CHANNELS 3 Zrotation Yrotation Xrotation
			JOINT LeftKnee
			{
				OFFSET 2.44811 -6.72613 0.00000
				CHANNELS 3 Zrotation Yrotation Xrotation
				JOINT LeftAnkle
				{
					OFFSET 2.56220 -7.03959 0.00000
					CHANNELS 3 Zrotation Yrotation Xrotation
					JOINT LeftToe
					{
						OFFSET 0.15764 -0.43311 2.32255
						CHANNELS 3 Zrotation Yrotation Xrotation
						End Site
						{
							OFFSET 0.00000 -0.00000 1.18966
						}
					}
				}
			}
		}
	}
	JOINT RHipJoint
	{
		OFFSET 0 0 0
		CHANNELS 3 Zrotation Yrotation Xrotation
		JOINT RightHip
		{
			OFFSET -1.30552 -1.79463 0.83929
			CHANNELS 3 Zrotation Yrotation Xrotation
			JOINT RightKnee
			{
				OFFSET -2.54253 -6.98555 0.00000
				CHANNELS 3 Zrotation Yrotation Xrotation
				JOINT RightAnkle
				{
					OFFSET -2.56826 -7.05623 0.00000
					CHANNELS 3 Zrotation Yrotation Xrotation
					JOINT RightToe
					{
						OFFSET -0.16473 -0.45259 2.36315
						CHANNELS 3 Zrotation Yrotation Xrotation
						End Site
						{
							OFFSET -0.00000 -0.00000 1.21082
						}
					}
				}
			}
		}
	}
	JOINT lowerback
	{
		OFFSET 0 0 0
		CHANNELS 3 Zrotation Yrotation Xrotation
		JOINT Chest
		{
			OFFSET 0.02827 2.03559 -0.19338
			CHANNELS 3 Zrotation Yrotation Xrotation
			JOINT Chest2
			{
				OFFSET 0.05672 2.04885 -0.04275
				CHANNELS 3 Zrotation Yrotation Xrotation
				JOINT lowerneck
				{
					OFFSET 0 0 0
					CHANNELS 3 Zrotation Yrotation Xrotation
					JOINT Neck
					{
						OFFSET -0.05417 1.74624 0.17202
						CHANNELS 3 Zrotation Yrotation Xrotation
						JOINT Head
						{
							OFFSET 0.10407 1.76136 -0.12397
							CHANNELS 3 Zrotation Yrotation Xrotation
							End Site
							{
								OFFSET 0.03720 1.77044 -0.06241
							}
						}
					}
				}
				JOINT LeftCollar
				{
					OFFSET 0 0 0
					CHANNELS 3 Zrotation Yrotation Xrotation
					JOINT LeftShoulder
					{
						OFFSET 3.36241 1.20089 -0.31121
CHANNELS 3 Zrotation Xrotation Yrotation
						JOINT LeftElbow
						{
OFFSET 0 -4.983000 -0.000000
CHANNELS 3 Zrotation Xrotation Yrotation
							JOINT LeftWrist
							{
OFFSET 0 -3.483560 -0.000000
CHANNELS 3 Zrotation Xrotation Yrotation
								JOINT lhand
								{
									OFFSET 0 0 0
CHANNELS 3 Zrotation Xrotation Yrotation
									JOINT LFingers
									{
OFFSET 0 -0.715260 -0.000000
CHANNELS 3 Zrotation Xrotation Yrotation
										End Site
										{
OFFSET 0 -0.576660 -0.000000
										}
									}
								}
								JOINT LThumb
								{
OFFSET 0 0.000000 0.000000
CHANNELS 3 Zrotation Xrotation Yrotation
									End Site
									{
OFFSET 0 -0.585470 0.585470
									}
								}
							}
						}
					}
				}
				JOINT RightCollar
				{
					OFFSET 0 0 0
					CHANNELS 3 Zrotation Yrotation Xrotation
					JOINT RightShoulder
					{
						OFFSET -3.13660 1.37405 -0.40465
CHANNELS 3 Zrotation Xrotation Yrotation
						JOINT RightElbow
						{
OFFSET 0 -5.241900 -0.000000
CHANNELS 3 Zrotation Xrotation Yrotation
							JOINT RightWrist
							{
OFFSET 0 -3.444170 -0.000000
CHANNELS 3 Zrotation Xrotation Yrotation
								JOINT rhand
								{
									OFFSET 0 0 0
CHANNELS 3 Zrotation Xrotation Yrotation
									JOINT RFingers
									{
OFFSET 0 -0.622530 -0.000000
CHANNELS 3 Zrotation Xrotation Yrotation
										End Site
										{
OFFSET 0 -0.501900 -0.000000
										}
									}
								}
								JOINT RThumb
								{
OFFSET 0 0.000000 0.000000
CHANNELS 3 Zrotation Xrotation Yrotation
									End Site
									{
OFFSET 0 -0.509560 0.509560
									}
								}
							}
						}
					}
				}
			}
		}
	}
}
MOTION
Frames: 6
Frame Time: 0.008333333333333333
-7.414500 17.680400 24.019500 -172.035000 -50.740800 175.080000 0.000000 0.000000 0.000000 -11.876600 -3.890000 -10.346200 2.489000 9.817900 28.389000 0.092700 -17.372700 -13.080600 0.000600 0.164300 0.451300 0.000000 0.000000 0.000000 27.419100 1.666000 -9.391700 -2.474100 -9.790600 28.301400 -0.838400 -3.944200 -19.160700 -0.723900 -5.436700 15.158400 5.758500 2.666100 7.301600 2.879100 3.788400 2.838400 -0.544900 1.823100 -0.962500 0.087700 7.340400 -6.363000 -1.990900 9.962900 6.659500 -0.170500 4.853800 3.378900 0.000000 -0.000000 0.000000 4.218500 -1.135600 -19.350000 16.251200 -25.860000 3.754800 10.854900 2.473900 8.477800 0.000000 0.000000 0.000000 -7.125000 0.000000 0.000000 -11.543700 21.415200 -6.665600 0.000000 -0.000000 0.000000 -8.656100 -1.678100 0.809000 -13.334400 -21.775200 -2.576000 -20.775000 0.148700 22.962200 0.000000 0.000000 0.000000 7.125000 0.000000 -0.000000 8.757400 54.145500 -1.980100
-7.421342 17.684957 23.888744 -171.998439 -49.622933 175.095035 0.000000 0.000000 0.000000 -12.575367 -6.628194 -8.042335 2.371841 9.600970 27.694097 0.841862 -8.710659 -16.563983 0.103150 -2.070370 -5.700228 0.000000 0.000000 0.000000 28.058193 2.761847 -8.427661 -2.406751 -9.666302 27.902779 -0.844395 -4.151399 -19.342862 -0.794510 -5.689422 15.885894 5.167288 2.918668 6.548751 3.103470 4.050547 2.686937 0.028977 1.956880 -0.749141 0.536227 7.099798 -5.946794 -2.083273 9.610264 7.095738 -0.299149 4.682205 3.478679 0.000000 0.000000 0.000000 3.341281 0.365726 -15.535385 13.691884 -22.291769 2.710523 9.348611 4.052650 7.698336 0.000000 0.000000 0.000000 -7.125000 0.000000 0.000000 -12.674859 22.235096 -7.108023 0.000000 0.000000 0.000000 -9.122154 -1.729915 0.907561 -13.946059 -22.657520 -2.807282 -17.364375 -0.526451 25.152251 0.000000 0.000000 0.000000 7.125000 0.000000 0.000000 13.238069 55.681964 -3.520193
-7.389870 17.649330 23.753016 -173.093598 -49.263809 175.773075 0.000000 0.000000 0.000000 -12.255028 -2.705268 -8.769842 2.222436 9.314772 26.784976 0.442667 -12.929368 -13.960871 0.007662 -0.372386 -1.023498 0.000000 0.000000 0.000000 27.776171 3.023437 -8.483579 -2.597563 -10.013173 29.019475 -0.960662 -3.617244 -20.159908 -0.879619 -5.978471 16.722241 3.755739 2.977364 6.156458 2.663735 4.062553 2.551548 0.372125 1.974369 -0.743076 0.839310 7.003602 -5.297579 -1.676111 9.415617 6.864221 -0.260928 4.618992 3.264089 0.000000 0.000000 0.000000 3.757023 0.830324 -10.433388 11.505206 -19.058307 1.937813 8.144749 7.647050 6.972193 0.000000 0.000000 0.000000 -7.125000 0.000000 0.000000 -13.600438 22.977784 -7.415919 0.000000 0.000000 0.000000 -7.531733 -1.590445 1.673236 -15.091794 -24.273711 -3.263691 -20.136891 -0.748069 25.382127 0.000000 0.000000 0.000000 7.125000 0.000000 0.000000 10.463272 56.482388 -2.968226
-7.398857 17.664536 23.657333 -174.564770 -49.420820 176.547571 0.000000 0.000000 0.000000 -13.295586 -3.180623 -7.559671 2.148126 9.167956 26.322208 0.571755 -11.685104 -14.728811 0.050117 -1.443980 -3.971268 0.000000 0.000000 0.000000 27.011158 2.749608 -7.657013 -2.538585 -9.907734 28.678453 -1.004377 -3.677824 -20.596961 -0.900857 -6.047810 16.923429 3.135288 2.838323 6.117182 1.954536 3.869779 2.408342 -0.002149 1.890023 -0.867052 0.109794 6.799124 -5.206096 -0.883065 9.138637 7.012419 0.096982 4.491010 3.209834 0.000000 0.000000 0.000000 4.476974 1.231362 -7.178318 10.702956 -17.831456 1.683777 7.709318 10.094039 7.538613 0.000000 0.000000 0.000000 -7.125000 0.000000 0.000000 -13.863232 22.431702 -7.747420 0.000000 0.000000 0.000000 -5.705530 -0.828588 3.594755 -16.137531 -25.706780 -3.705415 -20.277163 -3.916439 23.071566 0.000000 0.000000 0.000000 7.125000 0.000000 0.000000 9.309908 54.161771 -2.110062
-7.381022 17.649625 23.593301 -174.241913 -49.221837 176.627626 0.000000 0.000000 0.000000 -12.850322 -3.335001 -7.547155 2.099148 9.069600 26.013367 0.619360 -11.098432 -14.996265 0.098644 -2.023233 -5.569879 0.000000 0.000000 0.000000 27.586753 3.515134 -7.900645 -2.642061 -10.091681 29.274117 -1.073998 -3.958271 -21.378749 -0.952810 -6.216139 17.412765 3.331289 2.943987 6.007006 1.802871 4.047500 2.000381 -0.284929 1.980080 -1.197689 -0.655699 5.985111 -5.668286 -0.242371 8.066234 8.390668 0.431268 3.938519 3.706664 0.000000 0.000000 0.000000 4.702008 1.542594 -7.319331 11.296667 -18.741489 1.870169 8.972097 7.879063 6.930002 0.000000 0.000000 0.000000 -7.125000 0.000000 0.000000 -13.006985 23.002542 -7.068023 0.000000 0.000000 0.000000 -4.539160 0.679080 6.044790 -17.340553 -27.304563 -4.242367 -18.295788 -2.607871 23.396818 0.000000 0.000000 0.000000 7.125000 0.000000 0.000000 11.461649 54.113709 -2.593274
-7.340783 17.610828 23.517973 -174.363943 -49.362206 176.760022 0.000000 0.000000 0.000000 -12.553847 -2.382928 -7.957710 2.097288 9.065742 26.001270 0.629114 -11.460131 -15.198177 0.262905 -3.298402 -9.110616 0.000000 0.000000 0.000000 27.711344 2.705767 -8.498334 -2.738061 -10.258442 29.817864 -1.130372 -3.318207 -21.532588 -0.998203 -6.357964 17.826603 2.675915 2.951103 5.986607 1.869269 4.024036 1.974162 0.147266 1.968194 -1.264908 -2.178341 3.869044 -6.688668 0.260371 5.335047 10.566655 0.774138 2.513453 4.500569 0.000000 0.000000 0.000000 4.027581 1.018383 -7.951762 12.654051 -20.778038 2.329238 11.545310 3.976782 6.185303 0.000000 0.000000 0.000000 -7.125000 0.000000 0.000000 -11.193395 23.684537 -5.862691 0.000000 0.000000 0.000000 -4.762817 0.420503 7.668106 -16.818601 -26.617882 -4.005794 -15.898247 -3.265111 24.004032 0.000000 0.000000 0.000000 7.125000 0.000000 0.000000 14.157153 54.264395 -3.273049
